<?xml version="1.0" encoding="UTF-8"?>
<svg width = "50" height="50" version="1.1" viewBox="0 0 56.547 51.863" xmlns="http://www.w3.org/2000/svg"><g transform="translate(-6.7265 .93133)"><g transform="translate(-7.0766 -5.6701)"><g fill="none" stroke="#000" stroke-width="1px"><path d="m14.945 29.92c0.15768 0.14537 0.25869 0.28427 0.70687 1.0861 0.44818 0.80186 1.244 2.2671 1.7367 3.7121s0.6835 2.8713 0.68971 4.9492c0.0062 2.0779-0.17183 4.8038-0.16608 6.6987 0.0058 1.895 0.19526 2.9562 0.57541 3.9046 0.38016 0.9484 0.95113 1.7861 2.0066 2.3986 1.0554 0.6125 2.5905 0.99892 3.7452 1.0597 1.1547 0.06076 1.9242-0.20417 3.6981-1.7509 1.7738-1.5467 4.5516-4.375 6.0733-5.0563 1.5217-0.6813 1.7868 0.78339 2.0331 1.9135 0.24629 1.1301 0.47357 1.9256 1.2568 3.0304 0.7832 1.1048 2.1216 2.519 3.0624 3.3015 0.94082 0.78252 1.4838 0.93404 2.4875 0.93383s2.4684-0.15173 3.9518-0.60005c1.4834-0.44832 2.986-1.1933 4.16-2.3547 1.174-1.1614 2.02-2.7397 2.6836-3.3772s1.1434-0.33443 1.5159-0.16425 0.63763 0.20806 1.8119 0.22692c1.1743 0.01886 3.2577 0.01886 5.2019-0.40425 1.9443-0.42311 3.7499-1.2691 4.9555-2.2159 1.2056-0.94677 1.8116-1.9948 1.8624-3.7937 0.05071-1.7989-0.45436-4.3495-0.30302-6.263s0.95944-3.1887 1.1238-4.7919c0.16437-1.6032-0.31544-3.5351-0.41665-5.5934s0.17657-4.2428-0.32819-6.7617c-0.50476-2.5189-1.7927-5.3725-4.1599-7.7278-2.3673-2.3552-5.8143-4.2113-8.346-5.3542-2.5317-1.1429-4.1479-1.5722-7.2796-1.6671-3.1316-0.094881-7.7782 0.14503-11.036 0.7258s-5.1268 1.5025-7.7153 2.7589c-2.5885 1.2564-5.8967 2.8474-7.6585 4.0158s-1.9764 1.9134-2.7461 2.3234c-0.76969 0.41002-2.0955 0.48578-2.8031 0.87768-0.70763 0.3919-0.79602 1.099-1.2254 2.5068-0.42937 1.4078-1.1996 3.5164-1.5467 5.4675s-0.27136 3.7441-0.1256 4.7163c0.14576 0.97216 0.36041 1.1237 0.51809 1.269z"/><path d="m33.83 39.777c0.07215 0.11724 0.14358 0.23331 0.41126 1.0682 0.26768 0.83485 0.73196 2.3884 0.87007 3.4417 0.13811 1.0533-0.04938 1.6068-0.23668 2.1598"/><path d="m54.214 49.446c-0.19631-1.8739-0.39274-3.7489-0.0536-6.1242 0.33914-2.3753 1.2141-5.2502 2.0802-7.3932 0.86609-2.143 1.7232-3.5537 2.5805-4.9647"/><path d="m18 30.375c0.14403 0.03601 0.28689 0.07172 1.5547 1.3757 1.2678 1.304 3.6606 3.8753 5.0442 5.0712 1.3837 1.1958 1.7587 1.0172 4.4552-0.13457 2.6965-1.1518 7.7143-3.2768 12.732-5.4016"/></g><g><circle cx="20.411" cy="21.536" r="1.2321"/><ellipse cx="36.589" cy="22.286" rx="1.6071" ry="1.1786"/><ellipse cx="24.348" cy="31.902" rx="1.6875" ry="1.2054"/></g><path d="m46.768 21.804c1.2463-0.5164 2.4924-1.0327 3.6486-1.7515s2.2218-1.6392 2.0682-2.2018c-0.15358-0.56261-1.526-0.76582-2.719-0.84188-1.193-0.07606-2.2025-0.02434-3.2121 0.02739" fill="none" stroke="#000" stroke-width="1px"/><path d="m17.463 20.493-0.05037-0.35976c-0.05037-0.35976-0.15092-1.0779 0.07008-1.8998 0.221-0.82189 0.76371-1.7436 1.3061-2.6649" fill="none" stroke="#000" stroke-width="1px"/><path d="m41.812 55.4c-1.2652-0.45147-4.1522-3.5764-4.7833-5.1776-0.11748-0.29806-0.31855-0.98891-0.4468-1.5352-0.27895-1.1882-0.4316-1.5746-0.79052-2.0012-0.25792-0.30653-0.26512-0.3509-0.15408-0.95044 0.13282-0.71714 0.06664-1.5328-0.22576-2.7826-0.24009-1.0262-0.94861-3.2703-1.0749-3.4045-0.06968-0.07409-0.45272 0.09695-0.93642 0.41814-0.01584 0.01052 0.11985 0.47224 0.30154 1.026 0.53411 1.628 0.8521 3.0858 0.85066 3.8998-2e-3 1.1197-0.03838 1.1891-0.81801 1.5612-0.83913 0.40048-2.2498 1.5199-4.3768 3.4734-2.7711 2.5449-3.5796 3.12-4.5475 3.2347-0.87616 0.10377-2.726-0.30902-3.7981-0.84753-1.0453-0.52507-1.8697-1.6423-2.2807-3.091-0.17916-0.63148-0.19239-1.1226-0.1614-5.9914 0.03752-5.8943-0.02724-6.776-0.6297-8.5742-0.55321-1.6512-1.9238-4.3827-2.5294-5.041-0.3396-0.36912-0.44646-0.78822-0.5285-2.0729-0.07888-1.235 0.08097-3.0034 0.39298-4.3476 0.29253-1.2602 1.7992-6.1051 1.9938-6.4111 0.28648-0.45057 0.24891-0.18252-0.09596 0.6846-0.30201 0.75937-0.33876 0.96988-0.33968 1.946-5.68e-4 0.60201 0.02683 1.1224 0.06088 1.1565 0.03405 0.03405 0.28644 0.02364 0.56087-0.02313l0.49895-0.08505 0.04628-2.25 0.58929-1.1147c0.54997-1.0403 0.61788-1.1231 1.0179-1.2409 0.7353-0.21664 1.1429-0.4858 2.0475-1.3522 1.2743-1.2204 2.4328-1.921 6.6984-4.0511 5.6971-2.8449 7.3156-3.4691 10.272-3.9613 2.9305-0.48795 4.4545-0.59209 8.7321-0.59673 3.8682-0.00419 4.1274 0.00795 5.1918 0.24316 1.4197 0.31372 2.7592 0.80993 4.6973 1.7401 3.9714 1.9061 6.8842 4.0637 8.6522 6.409 0.74865 0.99309 1.8282 3.0603 2.1894 4.1925 0.55205 1.7304 0.66474 2.6665 0.7546 6.2679 0.05274 2.1137 0.15446 3.9422 0.26524 4.7679 0.26643 1.9857 0.18167 3.1311-0.36285 4.9035-0.66319 2.1586-0.72705 2.908-0.49617 5.8229 0.36491 4.607 0.11042 5.4746-2.0222 6.8935-1.5826 1.0531-3.5515 1.7392-5.6962 1.985-1.459 0.16726-4.9101 0.09971-5.4052-0.1058-0.20625-0.0856-0.38642-0.15999-0.40038-0.16532-0.01396-0.0053-0.0721-0.66334-0.12919-1.4623-0.32258-4.5138 1.2426-10.252 4.1402-15.18 0.63359-1.0774 0.63392-1.0193-0.0079-1.3662-0.39044-0.211-0.3925-0.20888-1.2456 1.2826-1.6129 2.8197-2.8552 6.1502-3.5877 9.6186-0.41533 1.9666-0.5465 3.8168-0.40543 5.7185l0.11675 1.5738-0.39217 0.39374c-0.21569 0.21656-0.70073 0.82696-1.0779 1.3565-1.4344 2.0138-2.2431 2.7447-3.9214 3.5435-1.1284 0.53707-2.1762 0.84801-3.5893 1.0651-1.253 0.19251-2.282 0.19417-2.8134 0.0045zm-14.652-17.374c0.45353-0.13468 14.503-6.0362 14.812-6.222 0.08207-0.04928-0.18243-0.77075-0.34077-0.9295-0.04921-0.04934-3.2409 1.2482-7.0926 2.8835-3.8517 1.6353-7.3038 3.0664-7.6712 3.1804l-0.66807 0.20716-0.5105-0.24029c-0.3833-0.18042-1.3247-1.0613-3.7784-3.5352-2.8368-2.8603-3.5554-3.5308-3.7838-3.5308-0.02634 0-0.10316 0.21947-0.1707 0.4877l-0.1228 0.48771 2.6012 2.6804c4.5062 4.6435 5.0691 5.0227 6.7254 4.5309zm-1.681-5.1737c0.62255-0.38476 0.78327-1.0501 0.3781-1.5651-0.3123-0.39703-0.81648-0.59075-1.5375-0.59075-0.99468 0-1.652 0.46882-1.6565 1.1815-0.0031 0.49107 0.24174 0.82777 0.7886 1.0845 0.56079 0.26326 1.5062 0.21191 2.0272-0.1101zm11.746-9.4395c0.60005-0.17209 0.97164-0.60657 0.97164-1.1361 0-0.37925-0.05828-0.50217-0.36634-0.77264-0.66155-0.58085-1.8201-0.58085-2.4816 0-0.30806 0.27048-0.36633 0.39339-0.36633 0.77264 0 0.90945 1.0963 1.4648 2.2426 1.1361zm-16.087-0.81219c0.51911-0.3636 0.69298-1.0842 0.39884-1.653-0.23268-0.44996-0.57189-0.64404-1.1256-0.64404s-0.89293 0.19408-1.1256 0.64404c-0.29414 0.5688-0.12026 1.2894 0.39884 1.653 0.13151 0.09211 0.45793 0.16722 0.72677 0.16722s0.59526-0.07511 0.72677-0.16722zm27.268-0.902c1.8776-0.85675 2.9818-1.5308 3.7774-2.3058 0.8025-0.78168 0.99435-1.2433 0.75488-1.8165-0.33486-0.80144-1.7144-1.13-4.745-1.13h-1.7741l0.06641 0.40178c0.03653 0.22098 0.06702 0.47411 0.06776 0.5625 0.0011 0.13677 0.2927 0.16141 1.9565 0.16535 1.8621 0.0044 2.9175 0.12486 3.2945 0.37595 0.13224 0.08807 0.06149 0.19986-0.39929 0.63085-0.76296 0.71365-1.9253 1.4194-3.4878 2.1177-0.72016 0.32186-1.3265 0.60235-1.3475 0.62332-0.04792 0.04791 0.31765 1.0154 0.38368 1.0154 0.02671 0 0.68036-0.28829 1.4525-0.64064z" fill="#fff" stroke-width=".10714"/></g></g></svg>
